<?xml version="1.0" encoding="UTF-8"?>
<!-- Generator: Adobe Illustrator 16.0.0, SVG Export Plug-In . SVG Version: 6.00 Build 0)  -->
<!DOCTYPE svg PUBLIC "-//W3C//DTD SVG 1.1//EN" "http://www.w3.org/Graphics/SVG/1.1/DTD/svg11.dtd">
<svg version="1.1" id="Layer_1" xmlns="http://www.w3.org/2000/svg" xmlns:xlink="http://www.w3.org/1999/xlink" x="0px" y="0px" width="48px" height="54px" viewBox="0 0 48 54" style="enable-background:new 0 0 48 54;" xml:space="preserve">
<g>
	<g>
		<path fill="#2f6f78" d="M0,0v54h2v-3h44v3h2V0H0z M46,49h-4l0.9-0.4l-4-9l-1.8,0.8l3.8,8.6H38v-6h-2v6h-1v-6h-2v6h-1v-6h-2v6h-1V39h-2v10h-5v-6    h-2v6h-2v-9h-2v9H2V35h44V49z M46,33H36v-9h-2v9h-2v-6h-2v6h-5V23h-2v10h-1v-6h-2v6h-1v-6h-2v6h-1v-6h-2v6h-2.9l3.8-8.6l-1.8-0.8    l-4,9L10,33H2V18h44V33z M46,16H24l0.9-0.3l-3-9l-1.9,0.6l2.9,8.7H20V6h-2v10h-1V8h-2v8h-1V8h-2v8h-1l1-0.3l-3-10L7,6.3L10,16H7V5    H5v11H2V2h44V16z M29.9,31.6l-3-7l-1.8,0.8l3,7L29.9,31.6z M26.9,41.4l-1.8-0.8l-3,7l1.8,0.8L26.9,41.4z"/>
	</g>
</g>
</svg>