<?xml version="1.0" encoding="UTF-8"?>
<!-- Generator: Adobe Illustrator 16.0.0, SVG Export Plug-In . SVG Version: 6.00 Build 0)  -->
<!DOCTYPE svg PUBLIC "-//W3C//DTD SVG 1.1//EN" "http://www.w3.org/Graphics/SVG/1.1/DTD/svg11.dtd">
<svg version="1.1" id="Layer_1" xmlns="http://www.w3.org/2000/svg" xmlns:xlink="http://www.w3.org/1999/xlink" x="0px" y="0px" width="53px" height="51px" viewBox="0 0 53 51" style="enable-background:new 0 0 53 51;" xml:space="preserve">
<g>
	<g>
		<path fill="#2f6f78" d="M0,42h18l5,9l5-9h18V4H0V42z M2,6.1h42v34H27l-4,7l-4-7H2V6.1z M15,0v2h36v33h-3v2h5V0H15z M12,18.2c-2.2,0-4,1.8-4,4    s1.8,4,4,4c2.2,0,4-1.8,4-4S14.2,18.2,12,18.2z M12,24.2c-1.1,0-2-0.9-2-2s0.9-2,2-2s2,0.9,2,2S13.1,24.2,12,24.2z M23,26.2    c2.2,0,4-1.8,4-4s-1.8-4-4-4c-2.2,0-4,1.8-4,4S20.8,26.2,23,26.2z M23,20.2c1.1,0,2,0.9,2,2s-0.9,2-2,2c-1.1,0-2-0.9-2-2    S21.9,20.2,23,20.2z M34,26.2c2.2,0,4-1.8,4-4s-1.8-4-4-4c-2.2,0-4,1.8-4,4S31.8,26.2,34,26.2z M34,20.2c1.1,0,2,0.9,2,2    s-0.9,2-2,2s-2-0.9-2-2S32.9,20.2,34,20.2z"/>
	</g>
</g>
</svg>