<?xml version="1.0" encoding="UTF-8"?>
<!-- Generator: Adobe Illustrator 16.0.0, SVG Export Plug-In . SVG Version: 6.00 Build 0)  -->
<!DOCTYPE svg PUBLIC "-//W3C//DTD SVG 1.1//EN" "http://www.w3.org/Graphics/SVG/1.1/DTD/svg11.dtd">
<svg version="1.1" id="Layer_1" xmlns="http://www.w3.org/2000/svg" xmlns:xlink="http://www.w3.org/1999/xlink" x="0px" y="0px" width="52px" height="55px" viewBox="0 0 52 55" style="enable-background:new 0 0 52 55;" xml:space="preserve">
<g>
	<g>
		<path fill="#2f6f78" d="M26,0L0,26.2l1.4,1.4L26,2.8l24.6,24.8l1.4-1.4L26,0z M44,53H8V28H6v27h40V28h-2V53z M34,21H18v2h16V21z M17.1,50h2v-9    c0-3.9,3.1-7,7-7s7,3.1,7,7v9h2v-9c0-5-4-9-8.9-9s-8.9,4-8.9,9V50z M21,43h2v-2h-2V43z M26,43h2v-2h-2V43z"/>
	</g>
</g>
</svg>