<?xml version="1.0" encoding="UTF-8"?>
<!-- Generator: Adobe Illustrator 16.0.0, SVG Export Plug-In . SVG Version: 6.00 Build 0)  -->
<!DOCTYPE svg PUBLIC "-//W3C//DTD SVG 1.1//EN" "http://www.w3.org/Graphics/SVG/1.1/DTD/svg11.dtd">
<svg version="1.1" id="Layer_1" xmlns="http://www.w3.org/2000/svg" xmlns:xlink="http://www.w3.org/1999/xlink" x="0px" y="0px" width="40.9px" height="51px" viewBox="0 0 40.9 51" style="enable-background:new 0 0 40.9 51;" xml:space="preserve">
<g>
	<g>
		<path fill="#2f6f78" d="M17,49H3c-0.5,0-1-0.4-1-1V3c0-0.6,0.4-1,1-1h14h6h2V0H3C1.3,0,0,1.3,0,3v45c0,1.7,1.3,3,3,3h21.9v-2h-2H17z M40.6,24.2    c-0.1-0.1-0.1-0.1-0.2-0.1c0-0.1-0.1-0.2-0.2-0.3l-8.9-8.9c-0.4-0.4-1-0.4-1.4,0c-0.4,0.4-0.4,1,0,1.4l7.7,7.7H15    c-0.6,0-1,0.4-1,1c0,0.6,0.4,1,1,1h22.5l-7.6,7.7c-0.4,0.4-0.4,1,0,1.4c0.2,0.2,0.4,0.3,0.7,0.3c0.3,0,0.5-0.1,0.7-0.3l9.3-9.5    C41,25.2,41,24.6,40.6,24.2z"/>
	</g>
</g>
</svg>