<?xml version="1.0" encoding="UTF-8"?>
<!-- Generator: Adobe Illustrator 18.1.1, SVG Export Plug-In . SVG Version: 6.00 Build 0)  -->
<!DOCTYPE svg PUBLIC "-//W3C//DTD SVG 1.1//EN" "http://www.w3.org/Graphics/SVG/1.1/DTD/svg11.dtd">
<svg version="1.1" id="Layer_1" xmlns="http://www.w3.org/2000/svg" xmlns:xlink="http://www.w3.org/1999/xlink" x="0px" y="0px" viewBox="0 0 1500 1500" enable-background="new 0 0 1500 1500" xml:space="preserve">
<path fill="#dadada" d="M1477.6,1394.8l-417.8-417.9c84-101,134.5-230.7,134.5-372.3c0-321.8-260.9-582.7-582.7-582.7  c-321.8,0-582.7,260.9-582.7,582.7c0,321.8,260.9,582.7,582.7,582.7c141.6,0,271.3-50.6,372.3-134.5l417.8,417.9L1477.6,1394.8z   M90.2,604.6C90.2,317.1,324,83.2,611.6,83.2C899,83.2,1133,317.1,1133,604.6S899,1126,611.6,1126C324,1126,90.2,892.1,90.2,604.6z"/>
</svg>