<?xml version="1.0" encoding="UTF-8"?>
<!-- Generator: Adobe Illustrator 16.0.0, SVG Export Plug-In . SVG Version: 6.00 Build 0)  -->
<!DOCTYPE svg PUBLIC "-//W3C//DTD SVG 1.1//EN" "http://www.w3.org/Graphics/SVG/1.1/DTD/svg11.dtd">
<svg version="1.1" id="Layer_1" xmlns="http://www.w3.org/2000/svg" xmlns:xlink="http://www.w3.org/1999/xlink" x="0px" y="0px" width="49px" height="54px" viewBox="0 0 49 54" style="enable-background:new 0 0 49 54;" xml:space="preserve">
<style type="text/css">
<![CDATA[
	.st0{fill-rule:evenodd;clip-rule:evenodd;}
]]>
</style>
<g>
	<g>
		<path fill="#2f6f78" d="M16,46h17v-8H16V46z M18,40h13v4H18V40z M49,4.9L48.9,4h-8.2C40.9,3,41,2.1,41,1l0-1H8l0,1c0,1,0.1,2,0.2,3H0.1L0,4.9    C0,5.2-0.4,12.4,4,17.1c2.4,2.6,6,3.9,10,3.9v-2c-4,0-6.5-1.1-8.6-3.3C2.5,12.6,2.1,8,2,6h6.5c1.4,7.8,5.5,13.1,9,17.5    c1,1.3,1.9,2.5,2.7,3.6c0.4,0.6,0.3,3.4,0,5.9H11v18h27V33h-8.1c-0.4-2.6-0.5-5.6,0-6.4c0.7-1.2,1.6-2.5,2.6-3.8    c0.8-1.2,1.7-2.4,2.6-3.7v2c4.2,0,7.6-1.3,10-3.9C49.4,12.4,49,5.2,49,4.9z M30.8,21.6c-1,1.4-1.9,2.7-2.7,4    c-1.2,1.9-0.3,7.5-0.1,8.6l0.1,0.8H36v14H13V35h8.8l0.1-0.8c0.3-1.5,1-6.4-0.2-8.2c-0.8-1.2-1.8-2.4-2.8-3.7    c-3.8-4.9-8.5-10.9-9-20.3H39C38.5,10.8,34.2,16.8,30.8,21.6z M43.6,15.7c-2,2.2-4.9,3.3-8.6,3.3c2.3-3.6,4.5-7.7,5.5-13H47    C47,8,46.5,12.6,43.6,15.7z M6,54h37v-2H6V54z"/>
	</g>
</g>
</svg>