<?xml version="1.0" encoding="UTF-8"?>
<!-- Generator: Adobe Illustrator 16.0.0, SVG Export Plug-In . SVG Version: 6.00 Build 0)  -->
<!DOCTYPE svg PUBLIC "-//W3C//DTD SVG 1.1//EN" "http://www.w3.org/Graphics/SVG/1.1/DTD/svg11.dtd">
<svg version="1.1" id="Layer_1" xmlns="http://www.w3.org/2000/svg" xmlns:xlink="http://www.w3.org/1999/xlink" x="0px" y="0px" width="54px" height="47px" viewBox="0 0 54 47" style="enable-background:new 0 0 54 47;" xml:space="preserve">
<style type="text/css">
<![CDATA[
	.st0{fill-rule:evenodd;clip-rule:evenodd;}
]]>
</style>
<g>
	<g>
		<path fill="#2f6f78" d="M46,19c0-0.3,0-0.7,0-1v-0.1C46,8,38,0,28.1,0h-0.1c-8.5,0-15.7,5.9-17.5,14C4.6,14.5,0,19.4,0,25.3v0.4    C0,31.9,5.1,37,11.3,37H19v-2h-7.7C6.2,35,2,30.8,2,25.7v-0.4c0-5.1,4.2-9.3,9.3-9.3l0.8,0l0.1-0.8C13.6,7.5,20.2,2,27.9,2h0.1    C36.9,2,44,9.1,44,17.9v0.1c0,0.6,0,1.2-0.1,1.8L43.8,21h1.5c3.7,0,6.8,3,6.8,6.8v0.5c0,3.7-3,6.8-6.8,6.8H37v2h8.2    c4.8,0,8.8-3.9,8.8-8.8v-0.5C54,23.2,50.5,19.4,46,19z M28.9,24.2c-0.1-0.1-0.3-0.2-0.4-0.2c-0.4-0.2-0.9-0.2-1.2,0.1l-6,5.9    c-0.4,0.4-0.4,1,0,1.4c0.2,0.2,0.5,0.3,0.7,0.3c0.3,0,0.5-0.1,0.7-0.3l4.3-4.2V46c0,0.6,0.4,1,1,1c0.6,0,1-0.4,1-1V27.2l4.3,4.4    c0.2,0.2,0.5,0.3,0.7,0.3c0.3,0,0.5-0.1,0.7-0.3c0.4-0.4,0.4-1,0-1.4L28.9,24.2z"/>
	</g>
</g>
</svg>